<svg xmlns="http://www.w3.org/2000/svg">
    <symbol id="alert-circle"
            viewBox="0 0 24 24">
            <rect width="24" height="24" transform="rotate(180 12 12)" opacity="0"/><path d="M12 2a10 10 0 1 0 10 10A10 10 0 0 0 12 2zm1 14a1 1 0 0 1-2 0v-5a1 1 0 0 1 2 0zm-1-7a1 1 0 1 1 1-1 1 1 0 0 1-1 1z"/>
            </symbol>

    <symbol id="alert-triangle"
            viewBox="0 0 24 24">
            <rect width="24" height="24" transform="rotate(90 12 12)" opacity="0"/><path d="M22.56 16.3L14.89 3.58a3.43 3.43 0 0 0-5.78 0L1.44 16.3a3 3 0 0 0-.05 3A3.37 3.37 0 0 0 4.33 21h15.34a3.37 3.37 0 0 0 2.94-1.66 3 3 0 0 0-.05-3.04zM12 17a1 1 0 1 1 1-1 1 1 0 0 1-1 1zm1-4a1 1 0 0 1-2 0V9a1 1 0 0 1 2 0z"/>
            </symbol>

    <symbol id="arrow-back"
            viewBox="0 0 24 24">
            <rect width="24" height="24" opacity="0"/><path d="M19 11H7.14l3.63-4.36a1 1 0 1 0-1.54-1.28l-5 6a1.19 1.19 0 0 0-.09.15c0 .05 0 .08-.07.13A1 1 0 0 0 4 12a1 1 0 0 0 .07.36c0 .05 0 .08.07.13a1.19 1.19 0 0 0 .09.15l5 6A1 1 0 0 0 10 19a1 1 0 0 0 .64-.23 1 1 0 0 0 .13-1.41L7.14 13H19a1 1 0 0 0 0-2z"/>
            </symbol>

    <symbol id="arrow-down"
            viewBox="0 0 24 24">
            <rect width="24" height="24" opacity="0"/><path d="M12 17a1.72 1.72 0 0 1-1.33-.64l-4.21-5.1a2.1 2.1 0 0 1-.26-2.21A1.76 1.76 0 0 1 7.79 8h8.42a1.76 1.76 0 0 1 1.59 1.05 2.1 2.1 0 0 1-.26 2.21l-4.21 5.1A1.72 1.72 0 0 1 12 17z"/>
            </symbol>

    <symbol id="arrow-downward"
            viewBox="0 0 24 24">
            <rect width="24" height="24" opacity="0"/><path d="M18.77 13.36a1 1 0 0 0-1.41-.13L13 16.86V5a1 1 0 0 0-2 0v11.86l-4.36-3.63a1 1 0 1 0-1.28 1.54l6 5 .15.09.13.07a1 1 0 0 0 .72 0l.13-.07.15-.09 6-5a1 1 0 0 0 .13-1.41z"/>
            </symbol>

    <symbol id="arrow-forward"
            viewBox="0 0 24 24">
            <rect width="24" height="24" transform="rotate(-90 12 12)" opacity="0"/><path d="M5 13h11.86l-3.63 4.36a1 1 0 0 0 1.54 1.28l5-6a1.19 1.19 0 0 0 .09-.15c0-.05.05-.08.07-.13A1 1 0 0 0 20 12a1 1 0 0 0-.07-.36c0-.05-.05-.08-.07-.13a1.19 1.19 0 0 0-.09-.15l-5-6A1 1 0 0 0 14 5a1 1 0 0 0-.64.23 1 1 0 0 0-.13 1.41L16.86 11H5a1 1 0 0 0 0 2z"/>
            </symbol>

    <symbol id="arrow-left"
            viewBox="0 0 24 24">
            <rect width="24" height="24" opacity="0"/><path d="M13.54 18a2.06 2.06 0 0 1-1.3-.46l-5.1-4.21a1.7 1.7 0 0 1 0-2.66l5.1-4.21a2.1 2.1 0 0 1 2.21-.26 1.76 1.76 0 0 1 1.05 1.59v8.42a1.76 1.76 0 0 1-1.05 1.59 2.23 2.23 0 0 1-.91.2z"/>
            </symbol>

    <symbol id="arrow-right"
            viewBox="0 0 24 24">
            <rect width="24" height="24" transform="rotate(180 12 12)" opacity="0"/><path d="M10.46 18a2.23 2.23 0 0 1-.91-.2 1.76 1.76 0 0 1-1.05-1.59V7.79A1.76 1.76 0 0 1 9.55 6.2a2.1 2.1 0 0 1 2.21.26l5.1 4.21a1.7 1.7 0 0 1 0 2.66l-5.1 4.21a2.06 2.06 0 0 1-1.3.46z"/>
            </symbol>

    <symbol id="arrow-up"
            viewBox="0 0 24 24">
            <rect width="24" height="24" transform="rotate(90 12 12)" opacity="0"/><path d="M16.21 16H7.79a1.76 1.76 0 0 1-1.59-1 2.1 2.1 0 0 1 .26-2.21l4.21-5.1a1.76 1.76 0 0 1 2.66 0l4.21 5.1A2.1 2.1 0 0 1 17.8 15a1.76 1.76 0 0 1-1.59 1z"/>
            </symbol>

    <symbol id="arrow-upward"
            viewBox="0 0 24 24">
            <rect width="24" height="24" transform="rotate(180 12 12)" opacity="0"/><path d="M5.23 10.64a1 1 0 0 0 1.41.13L11 7.14V19a1 1 0 0 0 2 0V7.14l4.36 3.63a1 1 0 1 0 1.28-1.54l-6-5-.15-.09-.13-.07a1 1 0 0 0-.72 0l-.13.07-.15.09-6 5a1 1 0 0 0-.13 1.41z"/>
            </symbol>

    <symbol id="award"
            viewBox="0 0 24 24">
            <rect width="24" height="24" opacity="0"/><path d="M19 20.75l-2.31-9A5.94 5.94 0 0 0 18 8 6 6 0 0 0 6 8a5.94 5.94 0 0 0 1.34 3.77L5 20.75a1 1 0 0 0 1.48 1.11l5.33-3.13 5.68 3.14A.91.91 0 0 0 18 22a1 1 0 0 0 1-1.25zM12 4a4 4 0 1 1-4 4 4 4 0 0 1 4-4z"/>
            </symbol>

    <symbol id="bar-chart"
            viewBox="0 0 24 24">
            <rect width="24" height="24" transform="rotate(90 12 12)" opacity="0"/><path d="M12 4a1 1 0 0 0-1 1v15a1 1 0 0 0 2 0V5a1 1 0 0 0-1-1z"/><path d="M19 12a1 1 0 0 0-1 1v7a1 1 0 0 0 2 0v-7a1 1 0 0 0-1-1z"/><path d="M5 8a1 1 0 0 0-1 1v11a1 1 0 0 0 2 0V9a1 1 0 0 0-1-1z"/>
            </symbol>

    <symbol id="bell"
            viewBox="0 0 24 24">
            <rect width="24" height="24" opacity="0"/><path d="M20.52 15.21l-1.8-1.81V8.94a6.86 6.86 0 0 0-5.82-6.88 6.74 6.74 0 0 0-7.62 6.67v4.67l-1.8 1.81A1.64 1.64 0 0 0 4.64 18H8v.34A3.84 3.84 0 0 0 12 22a3.84 3.84 0 0 0 4-3.66V18h3.36a1.64 1.64 0 0 0 1.16-2.79zM14 18.34A1.88 1.88 0 0 1 12 20a1.88 1.88 0 0 1-2-1.66V18h4z"/>
            </symbol>

    <symbol id="book"
            viewBox="0 0 24 24">
            <rect width="24" height="24" opacity="0"/><path d="M19 3H7a3 3 0 0 0-3 3v12a3 3 0 0 0 3 3h12a1 1 0 0 0 1-1V4a1 1 0 0 0-1-1zM7 19a1 1 0 0 1 0-2h11v2z"/>
            </symbol>

    <symbol id="book-open"
            viewBox="0 0 24 24">
            <rect width="24" height="24" transform="rotate(180 12 12)" opacity="0"/><path d="M21 4.34a1.24 1.24 0 0 0-1.08-.23L13 5.89v14.27l7.56-1.94A1.25 1.25 0 0 0 21.5 17V5.32a1.25 1.25 0 0 0-.5-.98z"/><path d="M11 5.89L4.06 4.11A1.27 1.27 0 0 0 3 4.34a1.25 1.25 0 0 0-.48 1V17a1.25 1.25 0 0 0 .94 1.21L11 20.16z"/>
            </symbol>

    <symbol id="briefcase"
            viewBox="0 0 24 24">
            <rect width="24" height="24" opacity="0"/><path d="M7 21h10V7h-1V5.5A2.5 2.5 0 0 0 13.5 3h-3A2.5 2.5 0 0 0 8 5.5V7H7zm3-15.5a.5.5 0 0 1 .5-.5h3a.5.5 0 0 1 .5.5V7h-4z"/><path d="M19 7v14a3 3 0 0 0 3-3v-8a3 3 0 0 0-3-3z"/><path d="M5 7a3 3 0 0 0-3 3v8a3 3 0 0 0 3 3z"/>
            </symbol>

    <symbol id="bulb"
            viewBox="0 0 24 24">
            <rect width="24" height="24" transform="rotate(180 12 12)" opacity="0"/><path d="M12 7a5 5 0 0 0-3 9v4a2 2 0 0 0 2 2h2a2 2 0 0 0 2-2v-4a5 5 0 0 0-3-9z"/><path d="M12 6a1 1 0 0 0 1-1V3a1 1 0 0 0-2 0v2a1 1 0 0 0 1 1z"/><path d="M21 11h-2a1 1 0 0 0 0 2h2a1 1 0 0 0 0-2z"/><path d="M5 11H3a1 1 0 0 0 0 2h2a1 1 0 0 0 0-2z"/><path d="M7.66 6.42L6.22 5a1 1 0 0 0-1.39 1.47l1.44 1.39a1 1 0 0 0 .73.28 1 1 0 0 0 .72-.31 1 1 0 0 0-.06-1.41z"/><path d="M19.19 5.05a1 1 0 0 0-1.41 0l-1.44 1.37a1 1 0 0 0 0 1.41 1 1 0 0 0 .72.31 1 1 0 0 0 .69-.28l1.44-1.39a1 1 0 0 0 0-1.42z"/>
            </symbol>

    <symbol id="calendar"
            viewBox="0 0 24 24">
            <rect width="24" height="24" opacity="0"/><path d="M18 4h-1V3a1 1 0 0 0-2 0v1H9V3a1 1 0 0 0-2 0v1H6a3 3 0 0 0-3 3v12a3 3 0 0 0 3 3h12a3 3 0 0 0 3-3V7a3 3 0 0 0-3-3zM8 17a1 1 0 1 1 1-1 1 1 0 0 1-1 1zm8 0h-4a1 1 0 0 1 0-2h4a1 1 0 0 1 0 2zm3-6H5V7a1 1 0 0 1 1-1h1v1a1 1 0 0 0 2 0V6h6v1a1 1 0 0 0 2 0V6h1a1 1 0 0 1 1 1z"/>
            </symbol>

    <symbol id="checkmark"
            viewBox="0 0 24 24">
            <rect width="24" height="24" opacity="0"/><path d="M9.86 18a1 1 0 0 1-.73-.32l-4.86-5.17a1 1 0 1 1 1.46-1.37l4.12 4.39 8.41-9.2a1 1 0 1 1 1.48 1.34l-9.14 10a1 1 0 0 1-.73.33z"/>
            </symbol>

    <symbol id="checkmark-circle"
            viewBox="0 0 24 24">
            <rect width="24" height="24" opacity="0"/><path d="M12 2a10 10 0 1 0 10 10A10 10 0 0 0 12 2zm4.3 7.61l-4.57 6a1 1 0 0 1-.79.39 1 1 0 0 1-.79-.38l-2.44-3.11a1 1 0 0 1 1.58-1.23l1.63 2.08 3.78-5a1 1 0 1 1 1.6 1.22z"/>
            </symbol>

    <symbol id="chevron-down"
            viewBox="0 0 24 24">
            <rect width="24" height="24" opacity="0"/><path d="M12 15.5a1 1 0 0 1-.71-.29l-4-4a1 1 0 1 1 1.42-1.42L12 13.1l3.3-3.18a1 1 0 1 1 1.38 1.44l-4 3.86a1 1 0 0 1-.68.28z"/>
            </symbol>

    <symbol id="chevron-left"
            viewBox="0 0 24 24">
            <rect width="24" height="24" transform="rotate(90 12 12)" opacity="0"/><path d="M13.36 17a1 1 0 0 1-.72-.31l-3.86-4a1 1 0 0 1 0-1.4l4-4a1 1 0 1 1 1.42 1.42L10.9 12l3.18 3.3a1 1 0 0 1 0 1.41 1 1 0 0 1-.72.29z"/>
            </symbol>

    <symbol id="chevron-right"
            viewBox="0 0 24 24">
            <rect width="24" height="24" transform="rotate(-90 12 12)" opacity="0"/><path d="M10.5 17a1 1 0 0 1-.71-.29 1 1 0 0 1 0-1.42L13.1 12 9.92 8.69a1 1 0 0 1 0-1.41 1 1 0 0 1 1.42 0l3.86 4a1 1 0 0 1 0 1.4l-4 4a1 1 0 0 1-.7.32z"/>
            </symbol>

    <symbol id="chevron-up"
            viewBox="0 0 24 24">
            <rect width="24" height="24" transform="rotate(180 12 12)" opacity="0"/><path d="M16 14.5a1 1 0 0 1-.71-.29L12 10.9l-3.3 3.18a1 1 0 0 1-1.41 0 1 1 0 0 1 0-1.42l4-3.86a1 1 0 0 1 1.4 0l4 4a1 1 0 0 1 0 1.42 1 1 0 0 1-.69.28z"/>
            </symbol>

    <symbol id="clipboard"
            viewBox="0 0 24 24">
            <rect width="24" height="24" opacity="0"/><path d="M18 4v3a2 2 0 0 1-2 2H8a2 2 0 0 1-2-2V4a3 3 0 0 0-3 3v12a3 3 0 0 0 3 3h12a3 3 0 0 0 3-3V7a3 3 0 0 0-3-3z"/><rect x="7" y="2" width="10" height="6" rx="1" ry="1"/>
            </symbol>

    <symbol id="clock"
            viewBox="0 0 24 24">
            <rect width="24" height="24" transform="rotate(180 12 12)" opacity="0"/><path d="M12 2a10 10 0 1 0 10 10A10 10 0 0 0 12 2zm4 11h-4a1 1 0 0 1-1-1V8a1 1 0 0 1 2 0v3h3a1 1 0 0 1 0 2z"/>
            </symbol>

    <symbol id="close"
            viewBox="0 0 24 24">
            <rect width="24" height="24" transform="rotate(180 12 12)" opacity="0"/><path d="M13.41 12l4.3-4.29a1 1 0 1 0-1.42-1.42L12 10.59l-4.29-4.3a1 1 0 0 0-1.42 1.42l4.3 4.29-4.3 4.29a1 1 0 0 0 0 1.42 1 1 0 0 0 1.42 0l4.29-4.3 4.29 4.3a1 1 0 0 0 1.42 0 1 1 0 0 0 0-1.42z"/>
            </symbol>

    <symbol id="collapse"
            viewBox="0 0 24 24">
            <rect width="24" height="24" transform="rotate(180 12 12)" opacity="0"/><path d="M19 9h-2.58l3.29-3.29a1 1 0 1 0-1.42-1.42L15 7.57V5a1 1 0 0 0-1-1 1 1 0 0 0-1 1v5a1 1 0 0 0 1 1h5a1 1 0 0 0 0-2z"/><path d="M10 13H5a1 1 0 0 0 0 2h2.57l-3.28 3.29a1 1 0 0 0 0 1.42 1 1 0 0 0 1.42 0L9 16.42V19a1 1 0 0 0 1 1 1 1 0 0 0 1-1v-5a1 1 0 0 0-1-1z"/>
            </symbol>

    <symbol id="corner-down-left"
            viewBox="0 0 24 24">
            <rect x=".05" y=".05" width="24" height="24" transform="rotate(-89.76 12.05 12.05)" opacity="0"/><path d="M20 6a1 1 0 0 0-1-1 1 1 0 0 0-1 1v5a1 1 0 0 1-.29.71A1 1 0 0 1 17 12H8.08l2.69-3.39a1 1 0 0 0-1.52-1.17l-4 5a1 1 0 0 0 0 1.25l4 5a1 1 0 0 0 .78.37 1 1 0 0 0 .62-.22 1 1 0 0 0 .15-1.41l-2.66-3.36h8.92a3 3 0 0 0 3-3z"/>
            </symbol>

    <symbol id="corner-down-right"
            viewBox="0 0 24 24">
            <rect width="24" height="24" transform="rotate(-90 12 12)" opacity="0"/><path d="M19.78 12.38l-4-5a1 1 0 0 0-1.56 1.24l2.7 3.38H8a1 1 0 0 1-1-1V6a1 1 0 0 0-2 0v5a3 3 0 0 0 3 3h8.92l-2.7 3.38a1 1 0 0 0 .16 1.4A1 1 0 0 0 15 19a1 1 0 0 0 .78-.38l4-5a1 1 0 0 0 0-1.24z"/>
            </symbol>

    <symbol id="corner-left-down"
            viewBox="0 0 24 24">
            <rect width="24" height="24" opacity="0"/><path d="M18 5h-5a3 3 0 0 0-3 3v8.92l-3.38-2.7a1 1 0 0 0-1.24 1.56l5 4a1 1 0 0 0 1.24 0l5-4a1 1 0 1 0-1.24-1.56L12 16.92V8a1 1 0 0 1 1-1h5a1 1 0 0 0 0-2z"/>
            </symbol>

    <symbol id="corner-left-up"
            viewBox="0 0 24 24">
            <rect width="24" height="24" transform="rotate(180 12 12)" opacity="0"/><path d="M18 17h-5a1 1 0 0 1-1-1V7.08l3.38 2.7A1 1 0 0 0 16 10a1 1 0 0 0 .78-.38 1 1 0 0 0-.16-1.4l-5-4a1 1 0 0 0-1.24 0l-5 4a1 1 0 0 0 1.24 1.56L10 7.08V16a3 3 0 0 0 3 3h5a1 1 0 0 0 0-2z"/>
            </symbol>

    <symbol id="corner-right-down"
            viewBox="0 0 24 24">
            <rect width="24" height="24" opacity="0"/><path d="M18.78 14.38a1 1 0 0 0-1.4-.16L14 16.92V8a3 3 0 0 0-3-3H6a1 1 0 0 0 0 2h5a1 1 0 0 1 1 1v8.92l-3.38-2.7a1 1 0 0 0-1.24 1.56l5 4a1 1 0 0 0 1.24 0l5-4a1 1 0 0 0 .16-1.4z"/>
            </symbol>

    <symbol id="corner-right-up"
            viewBox="0 0 24 24">
            <rect width="24" height="24" transform="rotate(180 12 12)" opacity="0"/><path d="M18.62 8.22l-5-4a1 1 0 0 0-1.24 0l-5 4a1 1 0 0 0 1.24 1.56L12 7.08V16a1 1 0 0 1-1 1H6a1 1 0 0 0 0 2h5a3 3 0 0 0 3-3V7.08l3.38 2.7A1 1 0 0 0 18 10a1 1 0 0 0 .78-.38 1 1 0 0 0-.16-1.4z"/>
            </symbol>

    <symbol id="corner-up-left"
            viewBox="0 0 24 24">
            <rect width="24" height="24" transform="rotate(90 12 12)" opacity="0"/><path d="M16 10H7.08l2.7-3.38a1 1 0 1 0-1.56-1.24l-4 5a1 1 0 0 0 0 1.24l4 5A1 1 0 0 0 9 17a1 1 0 0 0 .62-.22 1 1 0 0 0 .16-1.4L7.08 12H16a1 1 0 0 1 1 1v5a1 1 0 0 0 2 0v-5a3 3 0 0 0-3-3z"/>
            </symbol>

    <symbol id="corner-up-right"
            viewBox="0 0 24 24">
            <rect width="24" height="24" transform="rotate(-90 12 12)" opacity="0"/><path d="M19.78 10.38l-4-5a1 1 0 0 0-1.56 1.24l2.7 3.38H8a3 3 0 0 0-3 3v5a1 1 0 0 0 2 0v-5a1 1 0 0 1 1-1h8.92l-2.7 3.38a1 1 0 0 0 .16 1.4A1 1 0 0 0 15 17a1 1 0 0 0 .78-.38l4-5a1 1 0 0 0 0-1.24z"/>
            </symbol>

    <symbol id="cube"
            viewBox="0 0 24 24">
            <rect width="24" height="24" opacity="0"/><path d="M11.25 11.83L3 8.36v7.73a1.69 1.69 0 0 0 1 1.52L11.19 21h.06z"/><path d="M12 10.5l8.51-3.57a1.62 1.62 0 0 0-.51-.38l-7.2-3.37a1.87 1.87 0 0 0-1.6 0L4 6.55a1.62 1.62 0 0 0-.51.38z"/><path d="M12.75 11.83V21h.05l7.2-3.39a1.69 1.69 0 0 0 1-1.51V8.36z"/>
            </symbol>

    <symbol id="edit"
            viewBox="0 0 24 24">
            <rect width="24" height="24" opacity="0"/><path d="M19.4 7.34L16.66 4.6A2 2 0 0 0 14 4.53l-9 9a2 2 0 0 0-.57 1.21L4 18.91a1 1 0 0 0 .29.8A1 1 0 0 0 5 20h.09l4.17-.38a2 2 0 0 0 1.21-.57l9-9a1.92 1.92 0 0 0-.07-2.71zM16 10.68L13.32 8l1.95-2L18 8.73z"/>
            </symbol>

    <symbol id="email"
            viewBox="0 0 24 24">
            <rect width="24" height="24" opacity="0"/><path d="M19 4H5a3 3 0 0 0-3 3v10a3 3 0 0 0 3 3h14a3 3 0 0 0 3-3V7a3 3 0 0 0-3-3zm0 2l-6.5 4.47a1 1 0 0 1-1 0L5 6z"/>
            </symbol>

    <symbol id="expand"
            viewBox="0 0 24 24">
            <rect width="24" height="24" transform="rotate(180 12 12)" opacity="0"/><path d="M20 5a1 1 0 0 0-1-1h-5a1 1 0 0 0 0 2h2.57l-3.28 3.29a1 1 0 0 0 0 1.42 1 1 0 0 0 1.42 0L18 7.42V10a1 1 0 0 0 1 1 1 1 0 0 0 1-1z"/><path d="M10.71 13.29a1 1 0 0 0-1.42 0L6 16.57V14a1 1 0 0 0-1-1 1 1 0 0 0-1 1v5a1 1 0 0 0 1 1h5a1 1 0 0 0 0-2H7.42l3.29-3.29a1 1 0 0 0 0-1.42z"/>
            </symbol>

    <symbol id="external-link"
            viewBox="0 0 24 24">
            <rect width="24" height="24" opacity="0"/><path d="M20 11a1 1 0 0 0-1 1v6a1 1 0 0 1-1 1H6a1 1 0 0 1-1-1V6a1 1 0 0 1 1-1h6a1 1 0 0 0 0-2H6a3 3 0 0 0-3 3v12a3 3 0 0 0 3 3h12a3 3 0 0 0 3-3v-6a1 1 0 0 0-1-1z"/><path d="M16 5h1.58l-6.29 6.28a1 1 0 0 0 0 1.42 1 1 0 0 0 1.42 0L19 6.42V8a1 1 0 0 0 1 1 1 1 0 0 0 1-1V4a1 1 0 0 0-1-1h-4a1 1 0 0 0 0 2z"/>
            </symbol>

    <symbol id="eye"
            viewBox="0 0 24 24">
            <rect width="24" height="24" opacity="0"/><circle cx="12" cy="12" r="1.5"/><path d="M21.87 11.5c-.64-1.11-4.16-6.68-10.14-6.5-5.53.14-8.73 5-9.6 6.5a1 1 0 0 0 0 1c.63 1.09 4 6.5 9.89 6.5h.25c5.53-.14 8.74-5 9.6-6.5a1 1 0 0 0 0-1zm-9.87 4a3.5 3.5 0 1 1 3.5-3.5 3.5 3.5 0 0 1-3.5 3.5z"/>
            </symbol>

    <symbol id="eye-off"
            viewBox="0 0 24 24">
            <rect width="24" height="24" opacity="0"/><path d="M17.81 13.39A8.93 8.93 0 0 0 21 7.62a1 1 0 1 0-2-.24 7.07 7.07 0 0 1-14 0 1 1 0 1 0-2 .24 8.93 8.93 0 0 0 3.18 5.77l-2.3 2.32a1 1 0 0 0 1.41 1.41l2.61-2.6a9.06 9.06 0 0 0 3.1.92V19a1 1 0 0 0 2 0v-3.56a9.06 9.06 0 0 0 3.1-.92l2.61 2.6a1 1 0 0 0 1.41-1.41z"/>
            </symbol>

    <symbol id="facebook"
            viewBox="0 0 24 24">
            <rect width="24" height="24" transform="rotate(180 12 12)" opacity="0"/><path d="M17 3.5a.5.5 0 0 0-.5-.5H14a4.77 4.77 0 0 0-5 4.5v2.7H6.5a.5.5 0 0 0-.5.5v2.6a.5.5 0 0 0 .5.5H9v6.7a.5.5 0 0 0 .5.5h3a.5.5 0 0 0 .5-.5v-6.7h2.62a.5.5 0 0 0 .49-.37l.72-2.6a.5.5 0 0 0-.48-.63H13V7.5a1 1 0 0 1 1-.9h2.5a.5.5 0 0 0 .5-.5z"/>
            </symbol>

    <symbol id="funnel"
            viewBox="0 0 24 24">
            <rect width="24" height="24" opacity="0"/><path d="M13.9 22a1 1 0 0 1-.6-.2l-4-3.05a1 1 0 0 1-.39-.8v-3.27l-4.8-9.22A1 1 0 0 1 5 4h14a1 1 0 0 1 .86.49 1 1 0 0 1 0 1l-5 9.21V21a1 1 0 0 1-.55.9 1 1 0 0 1-.41.1z"/>
            </symbol>

    <symbol id="globe"
            viewBox="0 0 24 24">
            <rect width="24" height="24" transform="rotate(180 12 12)" opacity="0"/><path d="M22 12A10 10 0 0 0 12 2a10 10 0 0 0 0 20 10 10 0 0 0 10-10zm-2.07-1H17a12.91 12.91 0 0 0-2.33-6.54A8 8 0 0 1 19.93 11zM9.08 13H15a11.44 11.44 0 0 1-3 6.61A11 11 0 0 1 9.08 13zm0-2A11.4 11.4 0 0 1 12 4.4a11.19 11.19 0 0 1 3 6.6zm.36-6.57A13.18 13.18 0 0 0 7.07 11h-3a8 8 0 0 1 5.37-6.57zM4.07 13h3a12.86 12.86 0 0 0 2.35 6.56A8 8 0 0 1 4.07 13zm10.55 6.55A13.14 13.14 0 0 0 17 13h2.95a8 8 0 0 1-5.33 6.55z"/>
            </symbol>

    <symbol id="google"
            viewBox="0 0 24 24">
            <polyline points="0 0 24 0 24 24 0 24" opacity="0"/><path d="M17.5 14a5.51 5.51 0 0 1-4.5 3.93 6.15 6.15 0 0 1-7-5.45A6 6 0 0 1 12 6a6.12 6.12 0 0 1 2.27.44.5.5 0 0 0 .64-.21l1.44-2.65a.52.52 0 0 0-.23-.7A10 10 0 0 0 2 12.29 10.12 10.12 0 0 0 11.57 22 10 10 0 0 0 22 12.52v-2a.51.51 0 0 0-.5-.5h-9a.5.5 0 0 0-.5.5v3a.5.5 0 0 0 .5.5h5"/>
            </symbol>

    <symbol id="grid"
            viewBox="0 0 24 24">
            <rect width="24" height="24" opacity="0"/><path d="M9 3H5a2 2 0 0 0-2 2v4a2 2 0 0 0 2 2h4a2 2 0 0 0 2-2V5a2 2 0 0 0-2-2z"/><path d="M19 3h-4a2 2 0 0 0-2 2v4a2 2 0 0 0 2 2h4a2 2 0 0 0 2-2V5a2 2 0 0 0-2-2z"/><path d="M9 13H5a2 2 0 0 0-2 2v4a2 2 0 0 0 2 2h4a2 2 0 0 0 2-2v-4a2 2 0 0 0-2-2z"/><path d="M19 13h-4a2 2 0 0 0-2 2v4a2 2 0 0 0 2 2h4a2 2 0 0 0 2-2v-4a2 2 0 0 0-2-2z"/>
            </symbol>

    <symbol id="home"
            viewBox="0 0 24 24">
            <rect width="24" height="24" opacity="0"/><rect x="10" y="14" width="4" height="7"/><path d="M20.42 10.18L12.71 2.3a1 1 0 0 0-1.42 0l-7.71 7.89A2 2 0 0 0 3 11.62V20a2 2 0 0 0 1.89 2H8v-9a1 1 0 0 1 1-1h6a1 1 0 0 1 1 1v9h3.11A2 2 0 0 0 21 20v-8.38a2.07 2.07 0 0 0-.58-1.44z"/>
            </symbol>

    <symbol id="instagram"
            viewBox="0 0 24 24">
            <path d="M12,6.9c-2.8,0-5.1,2.3-5.1,5.1s2.3,5.1,5.1,5.1s5.1-2.3,5.1-5.1S14.8,6.9,12,6.9z M12,15.3c-1.8,0-3.3-1.5-3.3-3.3 s1.5-3.3,3.3-3.3s3.3,1.5,3.3,3.3S13.8,15.3,12,15.3L12,15.3z M18.5,6.7c0,0.7-0.5,1.2-1.2,1.2c-0.7,0-1.2-0.5-1.2-1.2 s0.5-1.2,1.2-1.2S18.5,6,18.5,6.7z M21.9,7.9c-0.1-1.6-0.4-3-1.6-4.2c-1.2-1.2-2.6-1.5-4.2-1.6C14.5,2,9.5,2,7.9,2.1 c-1.6,0.1-3,0.4-4.2,1.6S2.2,6.3,2.1,7.9C2,9.5,2,14.5,2.1,16.1c0.1,1.6,0.4,3,1.6,4.2c1.2,1.2,2.6,1.5,4.2,1.6 c1.7,0.1,6.6,0.1,8.2,0c1.6-0.1,3-0.4,4.2-1.6c1.2-1.2,1.5-2.6,1.6-4.2C22,14.5,22,9.5,21.9,7.9L21.9,7.9z M19.8,17.9 c-0.3,0.9-1,1.5-1.9,1.9c-1.3,0.5-4.4,0.4-5.9,0.4s-4.6,0.1-5.9-0.4c-0.9-0.3-1.5-1-1.9-1.9c-0.5-1.3-0.4-4.4-0.4-5.9 S3.7,7.4,4.2,6.1c0.3-0.9,1-1.5,1.9-1.9c1.3-0.5,4.4-0.4,5.9-0.4s4.6-0.1,5.9,0.4c0.9,0.3,1.5,1,1.9,1.9c0.5,1.3,0.4,4.4,0.4,5.9 S20.3,16.6,19.8,17.9z"/>
            </symbol>

    <symbol id="linkedin"
            viewBox="0 0 24 24">
            <rect width="24" height="24" transform="rotate(180 12 12)" opacity="0"/><path d="M15.15 8.4a5.83 5.83 0 0 0-5.85 5.82v5.88a.9.9 0 0 0 .9.9h2.1a.9.9 0 0 0 .9-.9v-5.88a1.94 1.94 0 0 1 2.15-1.93 2 2 0 0 1 1.75 2v5.81a.9.9 0 0 0 .9.9h2.1a.9.9 0 0 0 .9-.9v-5.88a5.83 5.83 0 0 0-5.85-5.82z"/><rect x="3" y="9.3" width="4.5" height="11.7" rx=".9" ry=".9"/><circle cx="5.25" cy="5.25" r="2.25"/>
            </symbol>

    <symbol id="lock"
            viewBox="0 0 24 24">
            <rect width="24" height="24" opacity="0"/><circle cx="12" cy="15" r="1"/><path d="M17 8h-1V6.11a4 4 0 1 0-8 0V8H7a3 3 0 0 0-3 3v8a3 3 0 0 0 3 3h10a3 3 0 0 0 3-3v-8a3 3 0 0 0-3-3zm-7-1.89A2.06 2.06 0 0 1 12 4a2.06 2.06 0 0 1 2 2.11V8h-4zM12 18a3 3 0 1 1 3-3 3 3 0 0 1-3 3z"/>
            </symbol>

    <symbol id="log-out"
            viewBox="0 0 24 24">
            <rect width="24" height="24" transform="rotate(90 12 12)" opacity="0"/><path d="M7 6a1 1 0 0 0 0-2H5a1 1 0 0 0-1 1v14a1 1 0 0 0 1 1h2a1 1 0 0 0 0-2H6V6z"/><path d="M20.82 11.42l-2.82-4a1 1 0 0 0-1.39-.24 1 1 0 0 0-.24 1.4L18.09 11H10a1 1 0 0 0 0 2h8l-1.8 2.4a1 1 0 0 0 .2 1.4 1 1 0 0 0 .6.2 1 1 0 0 0 .8-.4l3-4a1 1 0 0 0 .02-1.18z"/>
            </symbol>

    <symbol id="menu"
            viewBox="0 0 24 24">
            <rect width="24" height="24" transform="rotate(180 12 12)" opacity="0"/><rect x="3" y="11" width="18" height="2" rx=".95" ry=".95"/><rect x="3" y="16" width="18" height="2" rx=".95" ry=".95"/><rect x="3" y="6" width="18" height="2" rx=".95" ry=".95"/>
            </symbol>

    <symbol id="mic"
            viewBox="0 0 24 24">
            <rect width="24" height="24" opacity="0"/><path d="M12 15a4 4 0 0 0 4-4V6a4 4 0 0 0-8 0v5a4 4 0 0 0 4 4z"/><path d="M19 11a1 1 0 0 0-2 0 5 5 0 0 1-10 0 1 1 0 0 0-2 0 7 7 0 0 0 6 6.92V20H8.89a.89.89 0 0 0-.89.89v.22a.89.89 0 0 0 .89.89h6.22a.89.89 0 0 0 .89-.89v-.22a.89.89 0 0 0-.89-.89H13v-2.08A7 7 0 0 0 19 11z"/>
            </symbol>

    <symbol id="more-horizontal"
            viewBox="0 0 24 24">
            <rect width="24" height="24" opacity="0"/><circle cx="12" cy="12" r="2"/><circle cx="19" cy="12" r="2"/><circle cx="5" cy="12" r="2"/>
            </symbol>

    <symbol id="more-vertical"
            viewBox="0 0 24 24">
            <rect width="24" height="24" transform="rotate(-90 12 12)" opacity="0"/><circle cx="12" cy="12" r="2"/><circle cx="12" cy="5" r="2"/><circle cx="12" cy="19" r="2"/>
            </symbol>

    <symbol id="people"
            viewBox="0 0 24 24">
            <rect width="24" height="24" opacity="0"/><path d="M9 11a4 4 0 1 0-4-4 4 4 0 0 0 4 4z"/><path d="M17 13a3 3 0 1 0-3-3 3 3 0 0 0 3 3z"/><path d="M21 20a1 1 0 0 0 1-1 5 5 0 0 0-8.06-3.95A7 7 0 0 0 2 20a1 1 0 0 0 1 1h12a1 1 0 0 0 1-1"/>
            </symbol>

    <symbol id="person"
            viewBox="0 0 24 24">
            <rect width="24" height="24" opacity="0"/><path d="M12 11a4 4 0 1 0-4-4 4 4 0 0 0 4 4z"/><path d="M18 21a1 1 0 0 0 1-1 7 7 0 0 0-14 0 1 1 0 0 0 1 1z"/>
            </symbol>

    <symbol id="pie-chart"
            viewBox="0 0 24 24">
            <rect width="24" height="24" opacity="0"/><path d="M14.5 10.33h6.67A.83.83 0 0 0 22 9.5 7.5 7.5 0 0 0 14.5 2a.83.83 0 0 0-.83.83V9.5a.83.83 0 0 0 .83.83z"/><path d="M21.08 12h-8.15a.91.91 0 0 1-.91-.91V2.92A.92.92 0 0 0 11 2a10 10 0 1 0 11 11 .92.92 0 0 0-.92-1z"/>
            </symbol>

    <symbol id="plus"
            viewBox="0 0 24 24">
            <rect width="24" height="24" transform="rotate(180 12 12)" opacity="0"/><path d="M19 11h-6V5a1 1 0 0 0-2 0v6H5a1 1 0 0 0 0 2h6v6a1 1 0 0 0 2 0v-6h6a1 1 0 0 0 0-2z"/>
            </symbol>

    <symbol id="pin"
            viewBox="0 0 24 24">
            <rect width="24" height="24" opacity="0"/><circle cx="12" cy="9.5" r="1.5"/><path d="M12 2a8 8 0 0 0-8 7.92c0 5.48 7.05 11.58 7.35 11.84a1 1 0 0 0 1.3 0C13 21.5 20 15.4 20 9.92A8 8 0 0 0 12 2zm0 11a3.5 3.5 0 1 1 3.5-3.5A3.5 3.5 0 0 1 12 13z"/>
            </symbol>

    <symbol id="price-tags"
            viewBox="0 0 24 24">
            <rect width="24" height="24" opacity="0"/><path d="M21.47 11.58l-6.42-6.41a1 1 0 0 0-.61-.29L5.09 4a1 1 0 0 0-.8.29 1 1 0 0 0-.29.8l.88 9.35a1 1 0 0 0 .29.61l6.41 6.42a1.84 1.84 0 0 0 1.29.53 1.82 1.82 0 0 0 1.28-.53l7.32-7.32a1.82 1.82 0 0 0 0-2.57zm-9.91 0a1.5 1.5 0 1 1 0-2.12 1.49 1.49 0 0 1 0 2.1z"/>
            </symbol>

    <symbol id="question-mark"
            viewBox="0 0 24 24">
            <rect width="24" height="24" transform="rotate(180 12 12)" opacity="0"/><path d="M17 9A5 5 0 0 0 7 9a1 1 0 0 0 2 0 3 3 0 1 1 3 3 1 1 0 0 0-1 1v2a1 1 0 0 0 2 0v-1.1A5 5 0 0 0 17 9z"/><circle cx="12" cy="19" r="1"/>
            </symbol>

    <symbol id="question-mark-circle"
            viewBox="0 0 24 24">
            <rect width="24" height="24" transform="rotate(180 12 12)" opacity="0"/><path d="M12 2a10 10 0 1 0 10 10A10 10 0 0 0 12 2zm0 16a1 1 0 1 1 1-1 1 1 0 0 1-1 1zm1-5.16V14a1 1 0 0 1-2 0v-2a1 1 0 0 1 1-1 1.5 1.5 0 1 0-1.5-1.5 1 1 0 0 1-2 0 3.5 3.5 0 1 1 4.5 3.34z"/>
            </symbol>

    <symbol id="search"
            viewBox="0 0 24 24">
            <rect width="24" height="24" opacity="0"/><path d="M20.71 19.29l-3.4-3.39A7.92 7.92 0 0 0 19 11a8 8 0 1 0-8 8 7.92 7.92 0 0 0 4.9-1.69l3.39 3.4a1 1 0 0 0 1.42 0 1 1 0 0 0 0-1.42zM5 11a6 6 0 1 1 6 6 6 6 0 0 1-6-6z"/>
            </symbol>

    <symbol id="settings"
            viewBox="0 0 24 24">
            <rect width="24" height="24" transform="rotate(180 12 12)" opacity="0"/><circle cx="12" cy="12" r="1.5"/><path d="M20.32 9.37h-1.09c-.14 0-.24-.11-.3-.26a.34.34 0 0 1 0-.37l.81-.74a1.63 1.63 0 0 0 .5-1.18 1.67 1.67 0 0 0-.5-1.19L18.4 4.26a1.67 1.67 0 0 0-2.37 0l-.77.74a.38.38 0 0 1-.41 0 .34.34 0 0 1-.22-.29V3.68A1.68 1.68 0 0 0 13 2h-1.94a1.69 1.69 0 0 0-1.69 1.68v1.09c0 .14-.11.24-.26.3a.34.34 0 0 1-.37 0L8 4.26a1.72 1.72 0 0 0-1.19-.5 1.65 1.65 0 0 0-1.18.5L4.26 5.6a1.67 1.67 0 0 0 0 2.4l.74.74a.38.38 0 0 1 0 .41.34.34 0 0 1-.29.22H3.68A1.68 1.68 0 0 0 2 11.05v1.89a1.69 1.69 0 0 0 1.68 1.69h1.09c.14 0 .24.11.3.26a.34.34 0 0 1 0 .37l-.81.74a1.72 1.72 0 0 0-.5 1.19 1.66 1.66 0 0 0 .5 1.19l1.34 1.36a1.67 1.67 0 0 0 2.37 0l.77-.74a.38.38 0 0 1 .41 0 .34.34 0 0 1 .22.29v1.09A1.68 1.68 0 0 0 11.05 22h1.89a1.69 1.69 0 0 0 1.69-1.68v-1.09c0-.14.11-.24.26-.3a.34.34 0 0 1 .37 0l.76.77a1.72 1.72 0 0 0 1.19.5 1.65 1.65 0 0 0 1.18-.5l1.34-1.34a1.67 1.67 0 0 0 0-2.37l-.73-.73a.34.34 0 0 1 0-.37.34.34 0 0 1 .29-.22h1.09A1.68 1.68 0 0 0 22 13v-1.94a1.69 1.69 0 0 0-1.68-1.69zM12 15.5a3.5 3.5 0 1 1 3.5-3.5 3.5 3.5 0 0 1-3.5 3.5z"/>
            </symbol>

    <symbol id="slash"
            viewBox="0 0 24 24">
            <rect width="24" height="24" opacity="0"/><path d="M12 2a10 10 0 1 0 10 10A10 10 0 0 0 12 2zm8 10a7.92 7.92 0 0 1-1.69 4.9L7.1 5.69A7.92 7.92 0 0 1 12 4a8 8 0 0 1 8 8zM4 12a7.92 7.92 0 0 1 1.69-4.9L16.9 18.31A7.92 7.92 0 0 1 12 20a8 8 0 0 1-8-8z"/>
            </symbol>

    <symbol id="spinner"
            viewBox="0 0 24 24">
            <rect width="24" height="24" transform="rotate(180 12 12)" opacity="0"/><path d="M22,12A10,10,0,1,1,12,2a10.13,10.13,0,0,1,3.09.49L14,5.82a6.36,6.36,0,0,0-4,0,6.5,6.5,0,0,0,0,12.36,6.36,6.36,0,0,0,4,0A6.49,6.49,0,0,0,18.5,12Z"/>
            </symbol>

    <symbol id="star"
            viewBox="0 0 24 24">
            <rect width="24" height="24" transform="rotate(90 12 12)" opacity="0"/><path d="M17.56 21a1 1 0 0 1-.46-.11L12 18.22l-5.1 2.67a1 1 0 0 1-1.45-1.06l1-5.63-4.12-4a1 1 0 0 1-.25-1 1 1 0 0 1 .81-.68l5.7-.83 2.51-5.13a1 1 0 0 1 1.8 0l2.54 5.12 5.7.83a1 1 0 0 1 .81.68 1 1 0 0 1-.25 1l-4.12 4 1 5.63a1 1 0 0 1-.4 1 1 1 0 0 1-.62.18z"/>
            </symbol>

    <symbol id="tiktok"
            viewBox="0 0 24 24">
            <rect width="24" height="24" opacity="0"/><path d="M20.7,10.2c-1.7,0-3.4-0.5-4.8-1.5v7c0,3.5-2.8,6.4-6.4,6.3s-6.4-2.8-6.3-6.4c0-3.5,2.8-6.4,6.4-6.3c0.3,0,0.6,0,0.9,0.1 v3.5c-1.5-0.5-3.2,0.4-3.7,1.9s0.4,3.2,1.9,3.7s3.2-0.4,3.7-1.9c0.1-0.3,0.1-0.6,0.1-0.9V2H16c0,0.3,0,0.6,0.1,0.9l0,0 c0.2,1.3,1,2.4,2.1,3.1c0.8,0.5,1.7,0.8,2.6,0.8V10.2z"/>
            </symbol>

    <symbol id="trash"
            viewBox="0 0 24 24">
            <rect width="24" height="24" opacity="0"/><path d="M21 6h-5V4.33A2.42 2.42 0 0 0 13.5 2h-3A2.42 2.42 0 0 0 8 4.33V6H3a1 1 0 0 0 0 2h1v11a3 3 0 0 0 3 3h10a3 3 0 0 0 3-3V8h1a1 1 0 0 0 0-2zM10 16a1 1 0 0 1-2 0v-4a1 1 0 0 1 2 0zm0-11.67c0-.16.21-.33.5-.33h3c.29 0 .5.17.5.33V6h-4zM16 16a1 1 0 0 1-2 0v-4a1 1 0 0 1 2 0z"/>
            </symbol>

    <symbol id="twitter"
            viewBox="0 0 24 24">
            <polyline points="0 0 24 0 24 24 0 24" opacity="0"/><path d="M8.08 20A11.07 11.07 0 0 0 19.52 9 8.09 8.09 0 0 0 21 6.16a.44.44 0 0 0-.62-.51 1.88 1.88 0 0 1-2.16-.38 3.89 3.89 0 0 0-5.58-.17A4.13 4.13 0 0 0 11.49 9C8.14 9.2 5.84 7.61 4 5.43a.43.43 0 0 0-.75.24 9.68 9.68 0 0 0 4.6 10.05A6.73 6.73 0 0 1 3.38 18a.45.45 0 0 0-.14.84A11 11 0 0 0 8.08 20"/>
            </symbol>

    <symbol id="youtube"
            viewBox="0 0 24 24">
            <path d="M21.6,7.2c-0.2-0.9-0.9-1.5-1.8-1.8C18.3,5,12,5,12,5S5.7,5,4.2,5.4C3.3,5.6,2.6,6.3,2.4,7.2C2,8.7,2,12,2,12s0,3.3,0.4,4.8 c0.2,0.9,0.9,1.5,1.8,1.8C5.7,19,12,19,12,19s6.3,0,7.8-0.4c0.9-0.2,1.5-0.9,1.8-1.8C22,15.3,22,12,22,12S22,8.7,21.6,7.2z M10,15V9 l5.2,3L10,15L10,15z"/>
            </symbol>
</svg>